<?xml version="1.0" encoding="UTF-8" standalone="no"?>
<!DOCTYPE svg PUBLIC "-//W3C//DTD SVG 1.1//EN" "http://www.w3.org/Graphics/SVG/1.1/DTD/svg11.dtd">
<svg version="1.1" xmlns="http://www.w3.org/2000/svg" xmlns:xlink="http://www.w3.org/1999/xlink" preserveAspectRatio="xMidYMid meet" viewBox="0 0 512 512" width="512" height="512"><defs><path d="M443.36 1.44C405.01 1.44 374.17 30.33 374.17 66.32C374.17 83.44 381.74 99.41 393.07 111.18C384.64 119.57 317.22 186.6 308.79 194.94C296.24 183.74 279.23 176.68 261.04 176.68C242.8 176.68 225.78 183.17 213.85 194.37C205.41 187.13 138.05 129.06 129.62 121.81C135.26 114.71 138.41 105.89 138.41 96.45C138.41 72.85 117.68 53.36 92.54 53.36C67.39 53.36 46.61 72.85 46.61 96.45C46.61 120.05 67.39 139.5 92.54 139.5C104.47 139.5 115.14 135.35 123.32 128.3C131.75 135.54 199.17 193.61 207.6 200.85C198.15 212.06 192.46 226.22 192.46 241.57C192.46 258.68 199.42 274.03 210.7 285.24C201.4 294.44 126.98 368.09 117.68 377.29C105.74 367.85 90.66 362.51 73.64 362.51C35.28 362.51 4.5 391.45 4.5 427.44C4.5 463.44 35.28 492.33 73.64 492.33C111.99 492.33 142.83 463.44 142.83 427.44C142.83 410.33 135.92 394.98 124.59 383.77C133.84 374.57 207.75 300.92 217 291.72C228.93 301.16 244.02 306.5 261.04 306.5C262.26 306.5 262.92 306.5 264.14 306.5C265.36 316.51 274.91 396.74 276.13 406.8C250.93 411.52 231.47 432.16 231.47 457.52C231.47 486.41 255.96 509.44 286.8 509.44C317.58 509.44 342.12 486.41 342.12 457.52C342.12 428.59 317.58 405.61 286.8 405.61C286.19 405.61 285.53 405.61 284.92 405.61C283.7 395.55 274.15 315.32 272.98 305.31C289.28 302.35 303.76 294.67 313.82 282.9C322.36 288.67 390.78 334.91 399.32 340.68C395.56 347.21 393.07 354.27 393.07 362.51C393.07 386.11 413.8 405.61 438.94 405.61C464.09 405.61 484.81 386.11 484.81 362.51C484.81 338.91 464.09 319.46 438.94 319.46C425.12 319.46 413.19 325.38 405.01 334.2C396.42 328.43 328.05 282.18 319.46 276.37C326.42 266.36 330.18 254.53 330.18 242.19C330.18 226.84 324.54 213.25 315.09 202.05C323.57 193.61 391.49 126.1 399.98 117.67C411.92 125.91 427 131.25 443.36 131.25C481.72 131.25 512.5 102.32 512.5 66.32C512.5 30.33 481.72 1.44 443.36 1.44Z" id="a3TAVkeGf"></path><path d="M443.36 1.44C405.01 1.44 374.17 30.33 374.17 66.32C374.17 83.44 381.74 99.41 393.07 111.18C384.64 119.57 317.22 186.6 308.79 194.94C296.24 183.74 279.23 176.68 261.04 176.68C242.8 176.68 225.78 183.17 213.85 194.37C205.41 187.13 138.05 129.06 129.62 121.81C135.26 114.71 138.41 105.89 138.41 96.45C138.41 72.85 117.68 53.36 92.54 53.36C67.39 53.36 46.61 72.85 46.61 96.45C46.61 120.05 67.39 139.5 92.54 139.5C104.47 139.5 115.14 135.35 123.32 128.3C131.75 135.54 199.17 193.61 207.6 200.85C198.15 212.06 192.46 226.22 192.46 241.57C192.46 258.68 199.42 274.03 210.7 285.24C201.4 294.44 126.98 368.09 117.68 377.29C105.74 367.85 90.66 362.51 73.64 362.51C35.28 362.51 4.5 391.45 4.5 427.44C4.5 463.44 35.28 492.33 73.64 492.33C111.99 492.33 142.83 463.44 142.83 427.44C142.83 410.33 135.92 394.98 124.59 383.77C133.84 374.57 207.75 300.92 217 291.72C228.93 301.16 244.02 306.5 261.04 306.5C262.26 306.5 262.92 306.5 264.14 306.5C265.36 316.51 274.91 396.74 276.13 406.8C250.93 411.52 231.47 432.16 231.47 457.52C231.47 486.41 255.96 509.44 286.8 509.44C317.58 509.44 342.12 486.41 342.12 457.52C342.12 428.59 317.58 405.61 286.8 405.61C286.19 405.61 285.53 405.61 284.92 405.61C283.7 395.55 274.15 315.32 272.98 305.31C289.28 302.35 303.76 294.67 313.82 282.9C322.36 288.67 390.78 334.91 399.32 340.68C395.56 347.21 393.07 354.27 393.07 362.51C393.07 386.11 413.8 405.61 438.94 405.61C464.09 405.61 484.81 386.11 484.81 362.51C484.81 338.91 464.09 319.46 438.94 319.46C425.12 319.46 413.19 325.38 405.01 334.2C396.42 328.43 328.05 282.18 319.46 276.37C326.42 266.36 330.18 254.53 330.18 242.19C330.18 226.84 324.54 213.25 315.09 202.05C323.57 193.61 391.49 126.1 399.98 117.67C411.92 125.91 427 131.25 443.36 131.25C481.72 131.25 512.5 102.32 512.5 66.32C512.5 30.33 481.72 1.44 443.36 1.44Z" id="a1ZrXjpjs4"></path></defs><g><g><g><use xlink:href="#a3TAVkeGf" opacity="1" fill="#6eb6ff" fill-opacity="1"></use><g><use xlink:href="#a3TAVkeGf" opacity="1" fill-opacity="0" stroke="#000000" stroke-width="1" stroke-opacity="0"></use></g></g><g><use xlink:href="#a1ZrXjpjs4" opacity="1" fill="#000000" fill-opacity="0"></use><g><use xlink:href="#a1ZrXjpjs4" opacity="1" fill-opacity="0" stroke="#000000" stroke-width="1" stroke-opacity="0"></use></g></g></g></g></svg>