<svg width="320" height="106.55940946977786" viewBox="0 0 320 106.55940946977786" class="css-1j8o68f">
    <defs id="SvgjsDefs8804"></defs>
    <g id="SvgjsG8805"
        featurekey="symbolFeature-0"
        transform="matrix(1.237623715632081,0,0,1.237623715632081,-11.75742529850477,-10.148515412415026)"
        fill="#6eb6ff"
    >
        <path
            xmlns="http://www.w3.org/2000/svg"
            d="M79.3,30.2c6.1,0,11-4.9,11-11c0-6.1-4.9-11-11-11c-6.1,0-11,4.9-11,11c0,2.9,1.2,5.6,3,7.6L57.9,41c-2-1.9-4.7-3.1-7.6-3.1  c-2.9,0-5.6,1.1-7.5,3L29.4,28.6c0.9-1.2,1.4-2.7,1.4-4.3c0-4-3.3-7.3-7.3-7.3c-4,0-7.3,3.3-7.3,7.3c0,4,3.3,7.3,7.3,7.3  c1.9,0,3.6-0.7,4.9-1.9L41.8,42c-1.5,1.9-2.4,4.3-2.4,6.9c0,2.9,1.1,5.5,2.9,7.4L27.5,71.9c-1.9-1.6-4.3-2.5-7-2.5  c-6.1,0-11,4.9-11,11c0,6.1,4.9,11,11,11c6.1,0,11-4.9,11-11c0-2.9-1.1-5.5-2.9-7.4l14.7-15.6c1.9,1.6,4.3,2.5,7,2.5  c0.2,0,0.3,0,0.5,0l1.9,17c-4,0.8-7.1,4.3-7.1,8.6c0,4.9,3.9,8.8,8.8,8.8s8.8-3.9,8.8-8.8c0-4.9-3.9-8.8-8.8-8.8c-0.1,0-0.2,0-0.3,0  l-1.9-17c2.6-0.5,4.9-1.8,6.5-3.8l13.6,9.8c-0.6,1.1-1,2.3-1,3.7c0,4,3.3,7.3,7.3,7.3s7.3-3.3,7.3-7.3c0-4-3.3-7.3-7.3-7.3  c-2.2,0-4.1,1-5.4,2.5l-13.6-9.8c1.1-1.7,1.7-3.7,1.7-5.8c0-2.6-0.9-4.9-2.4-6.8l13.5-14.3C74.3,29.3,76.7,30.2,79.3,30.2z"></path></g><g id="SvgjsG8806" featurekey="nameFeature-0" transform="matrix(0.7631607262882879,0,0,0.7631607262882879,118.38209861979885,25.39891913705638)" fill="#90f2ff"><path d="M26.96 13.48 c0.18 0.14 0.28 0.28 0.28 0.46 c0 0.16 -0.06 0.3 -0.16 0.42 c-0.14 0.18 -0.3 0.28 -0.46 0.28 c-0.14 0 -0.28 -0.06 -0.42 -0.2 c-2.54 -2.1 -5.58 -3.24 -8.92 -3.24 c-2.52 0 -4.86 0.64 -7.04 1.9 c-2.08 1.22 -3.8 2.96 -5 5.04 c-1.22 2.1 -1.92 4.52 -1.92 7.06 s0.66 4.92 1.92 7.02 c1.2 2.08 2.92 3.8 5 5 c2.18 1.26 4.52 1.9 7.04 1.9 c3.3 0 6.36 -1.14 8.92 -3.2 c0.12 -0.1 0.26 -0.16 0.42 -0.16 c0.34 0 0.62 0.32 0.62 0.64 c0 0.18 -0.1 0.34 -0.28 0.48 c-2.9 2.32 -6.12 3.48 -9.68 3.48 c-2.74 0 -5.4 -0.74 -7.66 -2.08 s-4.16 -3.2 -5.44 -5.44 c-1.34 -2.3 -2.06 -4.92 -2.06 -7.64 s0.72 -5.38 2.06 -7.68 c1.28 -2.22 3.18 -4.1 5.44 -5.46 s4.88 -2.1 7.66 -2.1 c3.52 0 6.74 1.18 9.68 3.52 z M37.904 25.16 c0 -2.72 0.72 -5.36 2.06 -7.66 c1.3 -2.24 3.2 -4.12 5.44 -5.46 c2.26 -1.34 4.92 -2.08 7.66 -2.08 c4.1 0 7.94 1.66 10.74 4.46 s4.46 6.64 4.46 10.74 c0 2.74 -0.74 5.4 -2.08 7.66 c-1.34 2.24 -3.22 4.14 -5.46 5.44 c-2.38 1.38 -4.94 2.06 -7.66 2.06 c-2.74 0 -5.36 -0.72 -7.66 -2.06 c-2.24 -1.3 -4.14 -3.2 -5.44 -5.44 c-1.34 -2.3 -2.06 -4.92 -2.06 -7.66 z M39.104000000000006 25.16 c0 3.78 1.52 7.28 4.1 9.86 s6.08 4.1 9.86 4.1 c2.5 0 4.86 -0.64 7.04 -1.92 c2.08 -1.2 3.82 -2.94 5.04 -5.02 c1.26 -2.1 1.92 -4.48 1.92 -7.02 c0 -2.5 -0.64 -4.86 -1.92 -7.04 c-1.22 -2.08 -2.96 -3.82 -5.04 -5.04 c-2.18 -1.28 -4.54 -1.92 -7.04 -1.92 c-2.54 0 -4.92 0.66 -7.02 1.92 c-2.08 1.22 -3.82 2.96 -5.02 5.04 c-1.28 2.18 -1.92 4.54 -1.92 7.04 z M81.288 10.84 l0 28.04 l17.22 0 c0.4 0 0.6 0.18 0.6 0.56 s-0.2 0.56 -0.6 0.56 l-17.76 0 c-0.26 0 -0.42 -0.06 -0.48 -0.16 c-0.08 -0.08 -0.12 -0.22 -0.12 -0.4 l0 -28.6 c0 -0.38 0.2 -0.56 0.6 -0.56 s0.54 0.16 0.54 0.56 z M111.992 10.84 l0 28.04 l17.22 0 c0.4 0 0.6 0.18 0.6 0.56 s-0.2 0.56 -0.6 0.56 l-17.76 0 c-0.26 0 -0.42 -0.06 -0.48 -0.16 c-0.08 -0.08 -0.12 -0.22 -0.12 -0.4 l0 -28.6 c0 -0.38 0.2 -0.56 0.6 -0.56 s0.54 0.16 0.54 0.56 z M142.156 10.3 l19.36 0 c0.4 0 0.6 0.18 0.6 0.56 s-0.2 0.56 -0.6 0.56 l-18.82 0 l0 16.74 l15.42 0 c0.42 0 0.64 0.2 0.64 0.6 c0 0.38 -0.22 0.56 -0.64 0.56 l-15.42 0 l0 9.56 l19.26 0 c0.4 0 0.6 0.18 0.6 0.56 s-0.2 0.56 -0.6 0.56 l-20 0 c-0.34 0 -0.4 -0.24 -0.4 -0.56 l0 -28.58 c0 -0.4 0.2 -0.56 0.6 -0.56 z M197.48000000000002 13.48 c0.18 0.14 0.28 0.28 0.28 0.46 c0 0.16 -0.06 0.3 -0.16 0.42 c-0.14 0.18 -0.3 0.28 -0.46 0.28 c-0.14 0 -0.28 -0.06 -0.42 -0.2 c-2.54 -2.1 -5.58 -3.24 -8.92 -3.24 c-2.52 0 -4.86 0.64 -7.04 1.9 c-2.08 1.22 -3.8 2.96 -5 5.04 c-1.22 2.1 -1.92 4.52 -1.92 7.06 s0.66 4.92 1.92 7.02 c1.2 2.08 2.92 3.8 5 5 c2.18 1.26 4.52 1.9 7.04 1.9 c3.3 0 6.36 -1.14 8.92 -3.2 c0.12 -0.1 0.26 -0.16 0.42 -0.16 c0.34 0 0.62 0.32 0.62 0.64 c0 0.18 -0.1 0.34 -0.28 0.48 c-2.9 2.32 -6.12 3.48 -9.68 3.48 c-2.74 0 -5.4 -0.74 -7.66 -2.08 s-4.16 -3.2 -5.44 -5.44 c-1.34 -2.3 -2.06 -4.92 -2.06 -7.64 s0.72 -5.38 2.06 -7.68 c1.28 -2.22 3.18 -4.1 5.44 -5.46 s4.88 -2.1 7.66 -2.1 c3.52 0 6.74 1.18 9.68 3.52 z M208.864 10.280000000000001 l21.32 0 c0.4 0 0.6 0.18 0.6 0.56 s-0.2 0.56 -0.6 0.56 l-10.04 0 l0 28.04 c0 0.38 -0.18 0.56 -0.56 0.56 c-0.4 0 -0.6 -0.18 -0.6 -0.56 l0 -28.04 l-10.12 0 c-0.38 0 -0.56 -0.18 -0.56 -0.56 s0.18 -0.56 0.56 -0.56 z M264.188 21.12 c0 1.86 -0.44 3.62 -1.32 5.28 c-0.94 1.78 -2.32 3.16 -4.1 4.14 l4.18 8.84 c0.04 0.08 0.06 0.16 0.06 0.24 c0 0.22 -0.16 0.38 -0.4 0.38 l-0.26 0 c-0.34 0 -0.6 -0.2 -0.7 -0.42 l-4.06 -8.5 c-1.42 0.56 -2.98 0.84 -4.68 0.84 l-8.74 0 l0 7.52 c0 0.38 -0.2 0.56 -0.58 0.56 s-0.56 -0.18 -0.56 -0.56 l0 -28.58 c0 -0.38 0.02 -0.56 0.4 -0.56 l9.48 0 c3.7 0 6.56 1.32 8.54 3.48 c1.78 2.02 2.74 4.7 2.74 7.34 z M244.168 11.420000000000002 l0 19.34 l8.74 0 c2.2 0 4.12 -0.5 5.78 -1.5 c1.42 -0.86 2.52 -2.08 3.3 -3.64 c0.7 -1.4 1.04 -2.9 1.04 -4.5 s-0.34 -3.12 -1.04 -4.54 c-0.78 -1.54 -1.88 -2.76 -3.3 -3.66 c-1.62 -1 -3.54 -1.5 -5.78 -1.5 l-8.74 0 z"></path></g><g id="SvgjsG8807" featurekey="sloganFeature-0" transform="matrix(0.646188405638126,0,0,0.646188405638126,119.86547319794289,62.2521077403015)" fill="#6eb6ff"><path d="M7.32 6.52 l3.64 13.32 c-0.06 0.06 -0.22 0.16 -0.42 0.16 c-0.28 0 -0.38 -0.08 -0.44 -0.32 l-1.14 -4.28 l-6.14 0 l-1.9 4.52 c-0.12 0.06 -0.2 0.08 -0.32 0.08 c-0.32 0 -0.46 -0.22 -0.36 -0.48 l5.64 -13.3 c0.34 -0.18 0.48 -0.22 0.78 -0.22 c0.36 0 0.6 0.22 0.66 0.52 z M6.54 6.58 l-3.38 8.06 l5.58 0 l-2.18 -8.06 l-0.02 0 z M16.673000000000002 20 c-0.32 0 -0.42 -0.14 -0.4 -0.48 l1 -13.3 c0.38 -0.18 0.56 -0.22 0.88 -0.22 c0.36 0 0.56 0.22 0.68 0.52 l5.86 12.84 l0.06 0 l1 -13.28 c0.12 -0.06 0.24 -0.08 0.36 -0.08 c0.3 0 0.4 0.16 0.38 0.5 l-1 13.28 c-0.36 0.18 -0.54 0.22 -0.84 0.22 c-0.4 0 -0.58 -0.22 -0.72 -0.52 l-5.88 -12.84 l-0.02 0 l-1.02 13.28 c-0.12 0.06 -0.22 0.08 -0.34 0.08 z M45.999 6.52 l3.64 13.32 c-0.06 0.06 -0.22 0.16 -0.42 0.16 c-0.28 0 -0.38 -0.08 -0.44 -0.32 l-1.14 -4.28 l-6.14 0 l-1.9 4.52 c-0.12 0.06 -0.2 0.08 -0.32 0.08 c-0.32 0 -0.46 -0.22 -0.36 -0.48 l5.64 -13.3 c0.34 -0.18 0.48 -0.22 0.78 -0.22 c0.36 0 0.6 0.22 0.66 0.52 z M45.219 6.58 l-3.38 8.06 l5.58 0 l-2.18 -8.06 l-0.02 0 z M62.672000000000004 19.24 c0.04 0.1 0.06 0.24 0.06 0.32 c0 0.22 -0.24 0.44 -0.46 0.44 l-6.9 0 c-0.3 0 -0.44 -0.14 -0.42 -0.44 l1 -13.46 c0.1 -0.06 0.22 -0.1 0.36 -0.1 c0.26 0 0.42 0.14 0.38 0.66 l-0.92 12.58 l6.9 0 z M76.54500000000002 6 c0.04 0.1 0.06 0.24 0.06 0.32 c0 0.24 -0.18 0.44 -0.44 0.44 l-3.92 0 l0 0.04 l-1 13.12 c-0.02 0.04 -0.22 0.08 -0.34 0.08 c-0.28 0 -0.44 -0.14 -0.42 -0.44 l0.96 -12.8 l-4.16 0 c-0.02 -0.06 -0.04 -0.2 -0.04 -0.3 c0 -0.26 0.14 -0.46 0.44 -0.46 l8.86 0 z M85.39800000000001 20.2 c-2.76 0 -4.9 -2.02 -4.9 -6.56 c0 -5.16 2.72 -7.84 5.96 -7.84 c2.78 0 4.92 1.98 4.92 6.5 c0 5.14 -2.72 7.9 -5.98 7.9 z M85.37800000000001 19.42 c2.88 0 5.2 -2.4 5.2 -7.16 c0 -4.08 -1.72 -5.68 -4.1 -5.68 c-2.88 0 -5.18 2.32 -5.18 7.08 c0 4.1 1.7 5.76 4.08 5.76 z M105.30400000000002 20 c-0.3 0 -0.46 -0.14 -0.44 -0.44 l1 -13.46 c0.1 -0.06 0.24 -0.1 0.38 -0.1 c0.26 0 0.4 0.14 0.36 0.66 l-0.98 13.26 c-0.04 0.04 -0.2 0.08 -0.32 0.08 z M121.11700000000002 6 c0.04 0.1 0.06 0.24 0.06 0.32 c0 0.24 -0.18 0.44 -0.44 0.44 l-3.92 0 l0 0.04 l-1 13.12 c-0.02 0.04 -0.22 0.08 -0.34 0.08 c-0.28 0 -0.44 -0.14 -0.42 -0.44 l0.96 -12.8 l-4.16 0 c-0.02 -0.06 -0.04 -0.2 -0.04 -0.3 c0 -0.26 0.14 -0.46 0.44 -0.46 l8.86 0 z M136.50300000000004 20.2 c-2.54 0 -4.08 -1.24 -4.08 -1.98 c0.02 -0.32 0.18 -0.52 0.44 -0.56 c0.34 0.8 1.48 1.76 3.56 1.76 c2.72 0 4.16 -1.24 4.18 -2.9 c0.06 -4.04 -7.12 -2.7 -7.04 -7.12 c0.04 -2.06 1.82 -3.6 4.38 -3.6 c2.52 0 3.76 1.48 3.74 3.08 c-0.04 0.68 -0.24 0.9 -0.56 0.9 c-0.16 0 -0.26 -0.04 -0.34 -0.12 l0 -0.02 c0.02 -0.12 0.04 -0.3 0.04 -0.5 c0.04 -1.46 -0.88 -2.56 -2.92 -2.56 c-2.16 0 -3.5 1.2 -3.54 2.72 c-0.06 3.84 7.12 2.4 7.04 7.26 c-0.04 2.14 -1.92 3.64 -4.9 3.64 z M151.61600000000004 20.2 c-2.76 0 -4.9 -2.02 -4.9 -6.56 c0 -5.16 2.72 -7.84 5.96 -7.84 c2.78 0 4.92 1.98 4.92 6.5 c0 5.14 -2.72 7.9 -5.98 7.9 z M151.59600000000003 19.42 c2.88 0 5.2 -2.4 5.2 -7.16 c0 -4.08 -1.72 -5.68 -4.1 -5.68 c-2.88 0 -5.18 2.32 -5.18 7.08 c0 4.1 1.7 5.76 4.08 5.76 z M171.30900000000005 6 c0.04 0.1 0.06 0.24 0.06 0.32 c0 0.24 -0.16 0.44 -0.36 0.44 l-6.2 0 l-0.46 6.14 l5.78 0 c0.02 0.08 0.04 0.24 0.04 0.3 c0 0.24 -0.08 0.46 -0.36 0.46 l-5.52 0 l-0.46 6.22 c-0.06 0.06 -0.18 0.12 -0.34 0.12 c-0.3 0 -0.44 -0.14 -0.42 -0.44 l1 -13.56 l7.24 0 z M184.46200000000005 6 c0.04 0.1 0.06 0.24 0.06 0.32 c0 0.24 -0.18 0.44 -0.44 0.44 l-3.92 0 l0 0.04 l-1 13.12 c-0.02 0.04 -0.22 0.08 -0.34 0.08 c-0.28 0 -0.44 -0.14 -0.42 -0.44 l0.96 -12.8 l-4.16 0 c-0.02 -0.06 -0.04 -0.2 -0.04 -0.3 c0 -0.26 0.14 -0.46 0.44 -0.46 l8.86 0 z M191.61500000000007 20 c-0.36 0 -0.58 -0.22 -0.64 -0.5 l-2.66 -13.32 c0.04 -0.08 0.16 -0.18 0.36 -0.18 c0.28 0 0.4 0.1 0.46 0.34 l2.58 13.1 l0.04 0 l4.86 -13.36 c0.32 -0.18 0.48 -0.22 0.78 -0.22 c0.36 0 0.6 0.22 0.66 0.52 l2.6 13.06 l0.04 0 l4.82 -13.36 c0.1 -0.06 0.22 -0.08 0.36 -0.08 c0.24 0 0.38 0.22 0.28 0.48 l-4.84 13.3 c-0.32 0.18 -0.48 0.22 -0.78 0.22 c-0.36 0 -0.6 -0.22 -0.66 -0.5 l-2.58 -13.08 l-0.04 0 l-4.86 13.36 c-0.32 0.18 -0.48 0.22 -0.78 0.22 z M216.26800000000006 6.52 l3.64 13.32 c-0.06 0.06 -0.22 0.16 -0.42 0.16 c-0.28 0 -0.38 -0.08 -0.44 -0.32 l-1.14 -4.28 l-6.14 0 l-1.9 4.52 c-0.12 0.06 -0.2 0.08 -0.32 0.08 c-0.32 0 -0.46 -0.22 -0.36 -0.48 l5.64 -13.3 c0.34 -0.18 0.48 -0.22 0.78 -0.22 c0.36 0 0.6 0.22 0.66 0.52 z M215.48800000000006 6.58 l-3.38 8.06 l5.58 0 l-2.18 -8.06 l-0.02 0 z M234.14100000000008 9.66 c0 2.58 -1.72 3.96 -4.54 4.16 l4.14 6.1 c-0.12 0.16 -0.26 0.24 -0.44 0.24 c-0.26 0 -0.42 -0.1 -0.56 -0.3 l-4.12 -6.18 c-0.16 -0.28 -0.02 -0.56 0.26 -0.54 c2.96 0 4.48 -1.12 4.48 -3.54 c0 -1.88 -1.08 -3.04 -3.4 -3.04 c-1.16 0 -2.3 0.16 -3.02 0.38 l-0.96 12.98 c-0.04 0.04 -0.22 0.08 -0.34 0.08 c-0.3 0 -0.44 -0.14 -0.42 -0.44 l0.98 -13.22 c0.88 -0.26 2.26 -0.54 3.76 -0.54 c2.76 0 4.18 1.54 4.18 3.86 z M247.75400000000005 6 c0.04 0.1 0.06 0.24 0.06 0.32 c0 0.24 -0.16 0.44 -0.36 0.44 l-6.4 0 l-0.44 5.74 l6.3 0 c0.04 0.08 0.06 0.24 0.06 0.3 c0 0.24 -0.08 0.46 -0.36 0.46 l-6.06 0 l-0.44 5.98 l7.12 0 c0.04 0.1 0.06 0.24 0.06 0.32 c0 0.3 -0.16 0.44 -0.36 0.44 l-7.2 0 c-0.28 0 -0.44 -0.16 -0.42 -0.46 l1 -13.54 l7.44 0 z">
        </path>
    </g>
</svg>